<svg xmlns="http://www.w3.org/2000/svg" viewBox="0 0 326.94745 111.86784">
  <defs>
    <style>
      .a {
        fill: #80298f;
      }
    </style>
  </defs>
  <title>Gan_Logo</title>
  <g>
    <path class="a" d="M110.62456,50.41434q-.147,3.09566-.14614,5.74933-.14972,2.35783-.14793,4.6426a30.58511,30.58511,0,0,1-.14792,3.46279A48.53651,48.53651,0,0,1,104.656,83.13528,51.44131,51.44131,0,0,1,92.71715,98.095a54.92357,54.92357,0,0,1-16.80246,9.802,56.812,56.812,0,0,1-19.97118,3.53764,53.75464,53.75464,0,0,1-21.666-4.4216A56.93362,56.93362,0,0,1,4.3902,77.23981a53.38631,53.38631,0,0,1-4.45368-21.666A53.90414,53.90414,0,0,1,4.3902,33.83466,56.82367,56.82367,0,0,1,16.477,16.00032,57.48357,57.48357,0,0,1,34.27747,3.98838a53.75447,53.75447,0,0,1,21.666-4.4216,54.02594,54.02594,0,0,1,26.7524,6.77943,55.83116,55.83116,0,0,1,19.67534,18.1284L84.68483,35.23367a40.55746,40.55746,0,0,0-12.30778-11.643A30.57329,30.57329,0,0,0,55.94351,18.8732a31.919,31.919,0,0,0-13.77986,3.02259,37.40586,37.40586,0,0,0-11.201,8.03231A37.89858,37.89858,0,0,0,23.37049,41.646a36.22821,36.22821,0,0,0,0,27.93043,38.09755,38.09755,0,0,0,7.59211,11.643,37.31238,37.31238,0,0,0,11.201,8.03231,31.89182,31.89182,0,0,0,13.77986,3.02081A34.1535,34.1535,0,0,0,83.57988,78.41962a29.19024,29.19024,0,0,0,4.64259-9.43312H48.428V50.41434Z" transform="translate(0.06348 0.43322)"/>
    <path class="a" d="M109.443,109.37085,164.566,1.62877h2.06377l55.123,107.74208H199.35071l-8.40123-16.95038H140.10014l-8.25331,16.95038ZM150.12315,74.44h30.80331L165.59788,41.867Z" transform="translate(0.06348 0.43322)"/>
    <path class="a" d="M324.67762,109.37085,253.77868,45.25669v64.11416H233.14453V1.62877h2.21169l70.89359,65.146V1.62877H326.884V109.37085Z" transform="translate(0.06348 0.43322)"/>
  </g>
</svg>
